<svg width="52" height="51" viewBox="0 0 52 51" fill="none" xmlns="http://www.w3.org/2000/svg">
<rect x="0.647461" y="0.33078" width="50.4863" height="50.4863" rx="8.07781" fill="#1E2772"/>
<g clip-path="url(#clip0_3_245)">
<path d="M16.8027 16.4864H34.9778C35.2456 16.4864 35.5024 16.5928 35.6918 16.7821C35.8811 16.9715 35.9875 17.2283 35.9875 17.4961V33.6517C35.9875 33.9195 35.8811 34.1764 35.6918 34.3657C35.5024 34.5551 35.2456 34.6615 34.9778 34.6615H16.8027C16.5349 34.6615 16.2781 34.5551 16.0887 34.3657C15.8994 34.1764 15.793 33.9195 15.793 33.6517L15.793 17.4961C15.793 17.2283 15.8994 16.9715 16.0887 16.7821C16.2781 16.5928 16.5349 16.4864 16.8027 16.4864ZM33.968 20.7656L25.9629 27.9347L17.8124 20.7434V32.642H33.968V20.7656ZM18.3284 18.5058L25.9518 25.2326L33.4652 18.5058H18.3284Z" fill="white"/>
</g>
<defs>
<clipPath id="clip0_3_245">
<rect width="24.2334" height="24.2334" fill="white" transform="translate(13.7739 13.4572)"/>
</clipPath>
</defs>
</svg>
