<svg width="25" height="25" viewBox="0 0 25 25" fill="none" xmlns="http://www.w3.org/2000/svg">
<g clip-path="url(#clip0_3_255)">
<path d="M19.9586 10.5544H20.9683C21.2361 10.5544 21.493 10.6608 21.6823 10.8502C21.8717 11.0395 21.9781 11.2964 21.9781 11.5642V21.6614C21.9781 21.9292 21.8717 22.186 21.6823 22.3754C21.493 22.5648 21.2361 22.6711 20.9683 22.6711H4.8127C4.54491 22.6711 4.28808 22.5648 4.09872 22.3754C3.90936 22.186 3.80298 21.9292 3.80298 21.6614L3.80298 11.5642C3.80298 11.2964 3.90936 11.0395 4.09872 10.8502C4.28808 10.6608 4.54491 10.5544 4.8127 10.5544H5.82243V9.5447C5.82243 8.61651 6.00525 7.6974 6.36046 6.83986C6.71566 5.98232 7.23629 5.20314 7.89262 4.54681C8.54896 3.89048 9.32814 3.36985 10.1857 3.01464C11.0432 2.65944 11.9623 2.47662 12.8905 2.47662C13.8187 2.47662 14.7378 2.65944 15.5954 3.01464C16.4529 3.36985 17.2321 3.89048 17.8884 4.54681C18.5447 5.20314 19.0654 5.98232 19.4206 6.83986C19.7758 7.6974 19.9586 8.61651 19.9586 9.5447V10.5544ZM5.82243 12.5739L5.82243 20.6517H19.9586V12.5739L5.82243 12.5739ZM11.8808 14.5933H13.9002L13.9002 18.6322H11.8808L11.8808 14.5933ZM17.9391 10.5544V9.5447C17.9391 8.20572 17.4072 6.92158 16.4604 5.97478C15.5136 5.02798 14.2295 4.49607 12.8905 4.49607C11.5515 4.49607 10.2674 5.02798 9.32059 5.97478C8.37379 6.92158 7.84188 8.20572 7.84188 9.5447L7.84188 10.5544H17.9391Z" fill="white"/>
</g>
<defs>
<clipPath id="clip0_3_255">
<rect width="24.2334" height="24.2334" fill="white" transform="translate(0.773926 0.457191)"/>
</clipPath>
</defs>
</svg>
